<?xml version="1.0" standalone="no"?>
<!DOCTYPE svg PUBLIC "-//W3C//DTD SVG 20010904//EN"
 "http://www.w3.org/TR/2001/REC-SVG-20010904/DTD/svg10.dtd">
<svg version="1.0" xmlns="http://www.w3.org/2000/svg"
 width="2509.000000pt" height="1667.000000pt" viewBox="0 0 2509.000000 1667.000000"
 preserveAspectRatio="xMidYMid meet">
<metadata>
Created by potrace 1.15, written by Peter Selinger 2001-2017
</metadata>
<g transform="translate(0.000000,1667.000000) scale(0.100000,-0.100000)"
fill="#000000" stroke="none">
<path d="M8065 14779 c-3 -13 -102 -521 -220 -1129 -119 -608 -218 -1111 -220
-1117 -3 -10 33 -13 163 -13 l167 0 99 558 c134 755 128 724 136 715 4 -4 141
-313 306 -685 164 -373 301 -678 304 -678 3 0 144 306 314 680 170 374 312
680 315 680 3 0 51 -281 106 -625 55 -344 102 -630 105 -636 4 -6 70 -8 166
-7 l160 3 -57 320 c-31 176 -121 688 -200 1137 -79 450 -146 815 -150 810 -4
-4 -128 -270 -275 -592 -147 -322 -313 -686 -370 -810 -57 -124 -106 -224
-110 -223 -4 1 -169 367 -366 814 -198 448 -361 815 -363 817 -2 3 -6 -6 -10
-19z"/>
<path d="M12020 13658 l0 -1138 160 0 160 0 2 746 3 746 778 -811 777 -811 0
1130 0 1130 -160 0 -160 0 -2 -739 -3 -739 -255 267 c-140 147 -444 465 -675
706 -231 242 -466 487 -522 545 l-103 105 0 -1137z"/>
<path d="M3466 14669 c-108 -292 -540 -1425 -545 -1431 -3 -4 -130 311 -282
700 l-275 707 -172 3 c-95 1 -172 -1 -172 -5 0 -5 202 -514 449 -1133 l449
-1125 15 35 c8 19 135 355 282 745 147 391 271 713 274 717 3 4 127 -327 275
-735 148 -408 271 -745 275 -749 4 -4 53 104 110 240 57 136 270 642 472 1124
203 483 369 880 369 883 0 3 -78 5 -172 5 l-173 0 -289 -699 c-158 -384 -292
-704 -296 -710 -8 -14 14 -74 -301 796 -140 387 -257 703 -260 703 -4 0 -19
-32 -33 -71z"/>
<path d="M16241 13990 c-156 -413 -287 -750 -291 -750 -4 0 -130 317 -281 705
l-274 705 -172 0 c-95 0 -173 -2 -173 -4 0 -10 892 -2241 898 -2248 4 -4 131
320 281 720 151 400 280 737 286 750 10 21 43 -64 275 -705 145 -400 268 -738
275 -751 10 -21 62 97 483 1100 260 618 472 1127 472 1131 0 4 -77 6 -172 5
l-172 -3 -287 -695 c-158 -382 -291 -701 -296 -708 -5 -9 -108 261 -282 742
-151 416 -277 756 -280 756 -3 0 -134 -338 -290 -750z"/>
<path d="M6006 14679 c-238 -35 -456 -149 -631 -330 -100 -103 -154 -177 -207
-284 -174 -346 -135 -817 93 -1126 105 -143 285 -287 455 -366 224 -103 525
-121 780 -47 363 105 664 413 761 779 23 89 26 119 26 270 1 187 -9 249 -63
395 -110 302 -386 566 -700 669 -139 46 -358 63 -514 40z m374 -314 c88 -21
211 -84 288 -146 217 -175 320 -434 290 -729 -57 -573 -687 -891 -1186 -599
-31 19 -102 79 -157 134 -83 82 -108 115 -143 185 -62 124 -83 219 -84 370 -1
154 17 241 77 365 68 142 188 269 325 348 60 34 181 75 255 87 80 12 254 4
335 -15z"/>
<path d="M21266 14680 c-232 -37 -435 -141 -612 -315 -103 -102 -166 -187
-223 -301 -165 -329 -137 -780 66 -1086 162 -244 451 -433 740 -483 173 -30
387 -14 558 41 387 127 688 478 745 872 18 118 8 344 -19 452 -77 304 -320
593 -617 731 -138 65 -253 90 -429 94 -82 2 -177 0 -209 -5z m394 -320 c130
-37 223 -93 330 -200 111 -111 165 -200 206 -335 23 -79 27 -108 28 -235 1
-122 -3 -157 -22 -223 -88 -308 -334 -529 -640 -576 -260 -40 -493 37 -682
228 -172 174 -238 351 -228 610 4 108 10 140 38 223 92 274 338 483 625 529
82 13 261 2 345 -21z"/>
<path d="M10420 13585 l0 -1065 590 0 590 0 0 150 0 150 -430 0 -430 0 0 355
0 355 415 0 415 0 0 155 0 155 -402 0 c-222 0 -409 0 -415 0 -10 0 -13 58 -13
255 l0 255 430 0 430 0 0 150 0 150 -590 0 -590 0 0 -1065z"/>
<path d="M18350 13585 l0 -1065 160 0 160 0 0 495 0 495 463 0 462 0 0 -493 0
-492 163 -3 162 -2 0 1065 0 1065 -162 -2 -163 -3 0 -412 0 -413 -462 0 -463
0 0 415 0 415 -160 0 -160 0 0 -1065z"/>
<path d="M4900 11990 c-501 -39 -951 -172 -1304 -384 -67 -40 -128 -75 -136
-78 -23 -9 -219 -157 -301 -229 -107 -93 -275 -265 -322 -329 -22 -30 -44 -57
-47 -60 -4 -3 -35 -43 -69 -90 -34 -47 -70 -94 -79 -105 -66 -80 -268 -448
-305 -555 -9 -25 -24 -63 -35 -85 -26 -52 -64 -165 -97 -290 -15 -55 -31 -104
-35 -110 -22 -28 -89 -357 -119 -581 -35 -265 -44 -454 -38 -817 6 -359 17
-508 63 -792 27 -168 111 -520 138 -577 8 -18 32 -80 52 -138 20 -58 39 -109
43 -115 5 -5 16 -35 25 -65 28 -87 165 -345 258 -486 244 -367 569 -680 927
-892 134 -79 306 -163 396 -192 39 -13 75 -27 80 -31 18 -13 256 -79 344 -95
177 -32 271 -44 426 -55 365 -25 730 31 1193 182 l152 50 0 42 c1 50 -1 20 60
1067 26 454 46 826 45 828 -1 1 -13 -8 -26 -21 -70 -68 -329 -247 -430 -298
-91 -45 -220 -90 -334 -115 -108 -24 -340 -23 -449 0 -540 117 -857 569 -968
1376 -21 153 -18 740 5 910 87 645 329 1087 708 1294 142 78 294 116 485 122
127 4 152 2 255 -22 128 -30 250 -84 374 -165 70 -46 108 -75 261 -202 l34
-29 0 986 0 985 -94 30 c-159 51 -384 101 -546 121 -117 15 -451 20 -590 10z"/>
<path d="M9310 11990 c-417 -40 -803 -174 -1130 -393 -209 -140 -456 -366
-616 -565 -142 -177 -317 -454 -379 -601 -14 -34 -43 -100 -65 -145 -82 -177
-196 -562 -245 -831 -115 -635 -109 -1455 15 -2101 57 -298 91 -420 205 -744
41 -117 206 -444 285 -564 384 -587 923 -982 1555 -1140 55 -13 134 -29 175
-35 41 -6 111 -16 155 -23 106 -15 488 -14 595 1 228 33 472 96 630 162 764
323 1360 1108 1609 2119 95 388 141 793 141 1260 0 1026 -215 1867 -640 2500
-149 222 -383 477 -570 622 -149 115 -368 244 -506 299 -221 87 -443 144 -659
169 -128 15 -443 20 -555 10z m375 -1735 c118 -37 228 -147 314 -316 143 -280
214 -726 227 -1434 9 -454 -18 -801 -88 -1125 -25 -120 -95 -333 -141 -434
-81 -174 -206 -315 -316 -357 -188 -70 -347 -36 -486 106 -256 261 -395 863
-395 1716 0 567 56 985 176 1306 103 277 229 445 386 518 40 18 84 35 98 38
47 8 175 -2 225 -18z"/>
<path d="M13065 11991 c-3 -5 -4 -1619 -3 -3585 l2 -3576 980 1 c540 0 1033 4
1096 9 314 23 447 40 675 90 209 46 532 161 660 234 22 13 67 38 100 56 469
255 898 775 1132 1375 212 541 304 1090 304 1815 0 280 -9 457 -37 680 -15
120 -59 380 -69 409 -3 7 -12 47 -21 89 -23 110 -106 369 -169 528 -192 478
-515 926 -895 1239 -116 96 -139 112 -261 188 -434 268 -942 412 -1574 447
-238 13 -1912 14 -1920 1z m2225 -1837 c108 -36 209 -104 300 -201 144 -154
223 -304 321 -605 82 -251 120 -576 120 -1013 0 -560 -69 -949 -222 -1247 -85
-165 -166 -265 -291 -358 -91 -68 -174 -110 -278 -138 -58 -16 -204 -42 -236
-42 -2 0 -4 820 -4 1821 l0 1822 103 -5 c76 -4 124 -13 187 -34z"/>
<path d="M18840 8415 l0 -3585 1797 2 1798 3 3 858 4 857 -830 0 -830 0 -4
428 c-1 235 -1 482 0 550 l4 122 744 0 744 0 -2 858 -3 857 -742 3 -742 2 -3
388 c-2 213 -1 417 0 455 l4 67 829 0 829 0 0 844 c0 464 -3 851 -6 860 -6 15
-173 16 -1800 16 l-1794 0 0 -3585z"/>
<path d="M23299 5796 c-77 -22 -165 -75 -222 -135 -159 -166 -178 -403 -50
-599 46 -70 103 -117 188 -158 287 -138 622 38 677 354 40 236 -117 474 -355
538 -63 17 -176 17 -238 0z m291 -78 c167 -78 258 -229 248 -412 -19 -358
-459 -526 -714 -271 -163 162 -165 425 -6 588 95 98 174 129 317 124 82 -2
110 -7 155 -29z"/>
<path d="M23277 5553 c-4 -3 -7 -107 -7 -230 l0 -223 30 0 30 0 0 100 0 100
44 0 c63 0 83 -21 109 -115 22 -77 24 -80 54 -83 l31 -3 -23 86 c-13 50 -32
96 -45 110 l-23 24 37 34 c31 30 36 40 36 81 0 56 -22 94 -67 112 -33 14 -194
20 -206 7z m155 -43 c43 -12 58 -34 58 -84 0 -50 -36 -76 -106 -76 l-54 0 0
79 c0 67 3 80 18 84 29 8 46 7 84 -3z"/>
<path d="M16150 3137 l0 -1137 165 0 165 0 2 732 3 731 763 -796 c419 -438
766 -797 770 -797 4 0 6 506 4 1125 l-2 1125 -160 0 -160 0 -2 -729 -3 -729
-722 756 c-397 416 -745 779 -773 807 l-50 49 0 -1137z"/>
<path d="M14208 3147 c-285 -611 -520 -1120 -524 -1129 -6 -17 7 -18 172 -18
l179 1 115 254 115 254 450 1 450 0 110 -255 110 -255 182 0 182 0 -37 83
c-328 736 -978 2177 -982 2177 -3 0 -238 -501 -522 -1113z m676 8 l144 -330
-306 -3 c-168 -1 -307 0 -309 2 -2 2 67 160 154 351 117 256 160 342 165 328
5 -10 73 -166 152 -348z"/>
<path d="M7320 4140 c-220 -47 -392 -141 -555 -305 -95 -94 -160 -183 -214
-291 -142 -284 -144 -668 -5 -963 57 -121 112 -197 215 -297 184 -176 388
-281 618 -314 128 -19 343 -8 464 24 383 99 693 406 795 785 22 85 25 115 25
271 1 127 -4 194 -16 245 -44 194 -133 362 -269 509 -170 184 -369 297 -601
341 -112 21 -347 19 -457 -5z m435 -310 c159 -41 302 -135 411 -270 166 -206
214 -489 129 -759 -34 -107 -87 -192 -179 -289 -159 -166 -337 -242 -569 -242
-346 0 -666 254 -747 593 -28 114 -27 295 0 403 70 275 294 499 565 565 102
26 289 25 390 -1z"/>
<path d="M4890 3061 l0 -1061 165 0 165 0 0 430 0 430 140 0 c209 0 344 34
470 117 111 73 185 170 231 303 20 56 23 85 23 210 0 160 -13 218 -77 330 -45
80 -158 188 -239 228 -119 58 -167 64 -540 69 l-338 5 0 -1061z m568 749 c105
-17 172 -47 229 -104 64 -63 88 -134 81 -235 -16 -211 -168 -311 -474 -311
l-74 0 0 330 0 330 88 0 c48 0 115 -5 150 -10z"/>
<path d="M9200 3060 l0 -1060 165 0 165 0 0 431 0 430 27 -3 c22 -3 71 -67
323 -428 l296 -425 202 -3 c111 -1 202 0 202 4 0 3 -136 193 -303 422 -167
229 -311 429 -320 443 l-17 26 73 27 c93 34 158 78 230 155 61 66 116 170 138
261 23 90 18 261 -10 350 -29 93 -37 110 -96 188 -89 118 -235 196 -428 227
-66 11 -171 15 -369 15 l-278 0 0 -1060z m600 739 c30 -5 83 -23 117 -39 108
-53 153 -132 153 -270 0 -96 -20 -156 -71 -214 -69 -78 -168 -113 -351 -123
l-118 -6 0 337 0 338 108 -7 c59 -3 132 -11 162 -16z"/>
<path d="M10820 3970 l0 -150 245 0 245 0 0 -910 0 -910 160 0 160 0 0 910 0
910 245 0 245 0 0 150 0 150 -650 0 -650 0 0 -150z"/>
<path d="M12540 3060 l0 -1060 475 0 475 0 0 150 0 150 -310 0 -310 0 0 910 0
910 -165 0 -165 0 0 -1060z"/>
<path d="M18660 3060 l0 -1060 333 0 c439 0 565 19 747 110 200 101 362 263
460 463 165 336 139 798 -63 1097 -121 180 -307 321 -510 388 -155 51 -263 62
-636 62 l-331 0 0 -1060z m546 750 c335 -21 530 -125 669 -355 63 -105 87
-200 92 -360 6 -174 -9 -255 -71 -381 -104 -210 -312 -359 -546 -392 -41 -6
-139 -14 -217 -18 l-143 -6 0 761 0 761 38 0 c20 0 100 -5 178 -10z"/>
</g>
</svg>
