<?xml version="1.0" standalone="no"?>
<!DOCTYPE svg PUBLIC "-//W3C//DTD SVG 20010904//EN"
 "http://www.w3.org/TR/2001/REC-SVG-20010904/DTD/svg10.dtd">
<svg version="1.0" xmlns="http://www.w3.org/2000/svg"
 width="2123.000000pt" height="1169.000000pt" viewBox="0 0 2123.000000 1169.000000"
 preserveAspectRatio="xMidYMid meet">
<metadata>
Created by potrace 1.15, written by Peter Selinger 2001-2017
</metadata>
<g transform="translate(0.000000,1169.000000) scale(0.100000,-0.100000)"
fill="#000000" stroke="none">
<path d="M5876 11682 c-2 -4 -14 -59 -26 -122 -12 -63 -80 -385 -150 -715 -71
-330 -156 -736 -190 -903 -33 -166 -63 -309 -67 -317 -4 -13 19 -15 165 -15
l170 0 5 28 c50 274 213 1102 217 1102 3 0 11 -12 17 -27 6 -16 83 -179 171
-363 154 -324 335 -706 370 -782 22 -50 44 -48 67 5 41 94 113 244 338 699
l235 478 12 -68 c6 -37 50 -292 98 -567 l87 -500 168 -3 c157 -2 168 -1 163
15 -7 24 -83 426 -91 483 -8 56 -57 314 -186 984 -55 286 -101 535 -103 555
-1 19 -6 36 -12 38 -6 2 -83 -144 -171 -324 -88 -181 -252 -514 -364 -742
l-203 -413 -61 123 c-70 144 -164 341 -264 555 -38 84 -98 207 -132 275 -33
68 -69 144 -79 169 -10 25 -50 112 -89 193 -39 82 -71 153 -71 158 0 11 -17
12 -24 1z"/>
<path d="M9700 10641 l0 -1031 165 0 165 0 2 667 3 667 235 -230 c129 -126
307 -298 395 -383 88 -85 178 -173 200 -196 22 -23 110 -109 195 -190 85 -82
227 -219 315 -305 l160 -155 3 1020 c1 561 0 1026 -3 1033 -3 10 -42 12 -162
10 l-158 -3 -3 -665 -2 -665 -63 65 c-132 138 -1420 1385 -1433 1388 -12 3
-14 -151 -14 -1027z"/>
<path d="M1386 11487 c-33 -78 -93 -225 -134 -327 -94 -235 -353 -862 -360
-874 -5 -9 -57 110 -138 314 -26 63 -104 250 -174 415 -70 165 -144 343 -165
395 -58 153 -37 140 -235 140 -143 0 -170 -2 -170 -15 0 -8 56 -143 125 -300
69 -157 125 -288 125 -291 0 -3 66 -157 146 -343 81 -185 168 -388 194 -451
26 -63 79 -187 118 -275 38 -88 88 -202 111 -254 22 -52 41 -103 41 -113 0
-13 6 -18 16 -16 11 2 43 67 94 193 42 105 126 309 185 455 177 433 200 490
241 598 l39 102 18 -42 c10 -23 26 -67 36 -97 10 -31 80 -211 156 -401 75
-190 150 -381 166 -425 74 -207 148 -380 163 -383 9 -2 16 3 16 12 0 15 72
179 180 411 87 187 130 282 130 288 0 4 52 120 116 259 64 139 149 327 189
418 40 91 123 274 184 408 61 134 109 247 106 253 -7 11 -325 12 -341 1 -9 -6
-124 -252 -124 -266 0 -2 -67 -152 -149 -333 -81 -180 -151 -338 -155 -350 -4
-12 -37 -89 -74 -170 l-67 -149 -152 386 c-84 212 -196 498 -249 635 -117 302
-131 335 -141 335 -4 0 -35 -64 -67 -143z"/>
<path d="M14067 11623 c-3 -5 -50 -120 -105 -258 -55 -137 -135 -333 -177
-435 -42 -102 -92 -225 -112 -275 -19 -49 -62 -157 -96 -239 l-61 -148 -12 34
c-6 19 -72 178 -146 354 -74 175 -144 344 -156 374 -12 30 -66 159 -120 285
l-98 230 -172 3 c-134 2 -172 0 -172 -10 0 -15 40 -111 240 -578 236 -550 327
-763 407 -950 185 -435 222 -515 237 -518 10 -2 16 4 16 16 0 11 57 156 126
323 70 167 142 345 161 394 19 50 82 206 141 348 l105 258 84 -208 c46 -114
99 -251 118 -303 19 -52 97 -254 175 -449 77 -195 140 -361 140 -368 0 -7 6
-13 13 -13 14 0 23 19 147 300 66 150 133 298 265 585 15 33 49 110 75 170 26
61 91 205 144 320 54 116 110 239 126 275 16 36 60 136 99 223 39 87 71 165
71 173 0 12 -27 14 -171 12 l-172 -3 -149 -335 c-82 -184 -193 -432 -246 -550
-52 -118 -113 -253 -134 -300 l-39 -85 -40 100 c-22 55 -60 154 -85 220 -25
66 -110 284 -189 485 -79 201 -159 407 -177 457 -30 83 -48 108 -61 86z"/>
<path d="M3845 11564 c-257 -40 -489 -176 -684 -400 -46 -53 -115 -175 -145
-255 -83 -221 -72 -516 26 -733 121 -267 390 -483 704 -567 110 -30 132 -32
284 -33 175 -1 261 12 398 58 202 69 397 212 530 389 153 202 210 467 161 737
-34 184 -125 348 -278 498 -177 174 -369 273 -594 306 -126 19 -280 19 -402 0z
m396 -293 c148 -38 302 -129 382 -225 23 -28 48 -57 55 -64 24 -26 91 -178
106 -242 57 -242 -29 -518 -214 -682 -152 -135 -311 -192 -530 -191 -209 1
-370 61 -513 191 -173 158 -245 327 -234 555 7 171 51 282 167 420 88 106 256
207 399 242 87 21 293 19 382 -4z"/>
<path d="M18615 11561 c-230 -44 -420 -145 -588 -314 -196 -198 -279 -397
-279 -667 0 -279 79 -475 267 -666 156 -158 312 -249 522 -306 109 -29 130
-32 283 -32 102 -1 188 4 225 12 215 48 357 114 505 234 178 144 275 284 337
485 25 81 27 102 27 263 1 155 -2 184 -23 258 -86 303 -341 569 -660 689 -101
38 -204 54 -366 59 -118 3 -171 0 -250 -15z m418 -290 c264 -68 474 -269 533
-511 27 -110 25 -280 -5 -385 -69 -239 -282 -434 -536 -491 -107 -24 -275 -24
-380 0 -142 32 -323 144 -406 251 -21 27 -43 55 -48 61 -20 24 -60 112 -81
179 -30 96 -37 246 -16 345 9 44 36 117 65 176 43 86 62 111 133 180 90 86
191 146 308 183 87 27 96 28 236 30 90 1 140 -4 197 -18z"/>
<path d="M8150 10580 l0 -970 580 0 580 0 0 140 0 140 -415 0 -415 0 0 315 0
315 400 0 400 0 0 145 0 145 -400 0 -400 0 0 225 0 225 415 0 415 0 0 145 0
145 -580 0 -580 0 0 -970z"/>
<path d="M15837 11543 c-4 -3 -7 -440 -7 -970 l0 -963 165 0 165 0 0 448 0
447 440 0 440 0 0 -447 0 -448 165 0 165 0 0 970 0 970 -162 -2 -163 -3 -3
-377 -2 -378 -440 0 -440 0 0 380 0 380 -158 0 c-87 0 -162 -3 -165 -7z"/>
<path d="M2735 9155 c-149 -13 -217 -23 -436 -65 -241 -46 -541 -156 -754
-276 -33 -18 -86 -47 -119 -64 -74 -38 -240 -152 -286 -196 -19 -18 -69 -60
-110 -93 -86 -68 -227 -215 -310 -321 -19 -25 -44 -56 -57 -69 -13 -13 -23
-29 -23 -36 0 -6 -11 -22 -25 -35 -71 -67 -305 -469 -305 -524 0 -8 -4 -17 -9
-21 -12 -7 -69 -161 -107 -285 -16 -52 -31 -97 -35 -100 -11 -9 -68 -241 -93
-385 -42 -232 -57 -396 -63 -675 -9 -402 19 -710 92 -1055 32 -148 97 -376
114 -400 4 -5 22 -50 40 -100 18 -49 39 -102 47 -118 8 -15 17 -37 19 -50 7
-34 61 -141 132 -259 69 -115 216 -326 241 -344 9 -7 12 -16 7 -24 -5 -8 -4
-11 2 -7 6 4 19 -3 29 -15 13 -14 14 -19 4 -14 -8 4 -4 -2 10 -13 14 -11 29
-21 33 -21 4 0 7 -6 5 -14 -2 -8 0 -14 4 -13 11 3 78 -65 72 -74 -4 -7 14 -24
27 -24 13 0 97 -84 91 -91 -4 -4 -1 -4 5 0 7 4 23 -3 35 -15 13 -12 16 -18 8
-14 -8 4 -2 -6 14 -23 29 -32 54 -44 40 -20 -7 11 21 -11 120 -95 11 -10 15
-15 7 -11 -9 5 -12 3 -7 -5 4 -6 11 -9 16 -6 10 6 173 -99 165 -107 -4 -3 2
-5 12 -4 10 0 17 -5 15 -12 -1 -8 2 -11 8 -7 11 7 73 -22 175 -80 61 -35 265
-118 319 -130 24 -5 27 -8 15 -17 -12 -8 -11 -9 2 -5 19 6 303 -66 294 -75 -3
-3 6 -3 20 -1 31 6 102 -6 88 -15 -6 -4 12 -7 40 -7 29 0 104 -6 167 -14 249
-31 606 -14 879 41 87 17 105 18 113 7 8 -11 9 -10 4 3 -7 23 61 38 76 17 8
-11 9 -11 5 2 -4 12 17 21 99 43 56 15 108 24 115 20 7 -4 9 -3 6 3 -6 10 117
56 147 56 9 0 16 65 25 221 7 122 16 282 21 356 6 74 14 225 20 335 5 110 14
261 20 335 5 74 15 209 20 300 6 91 13 177 16 193 9 38 -12 35 -62 -11 -23
-20 -54 -45 -70 -55 -16 -9 -76 -49 -134 -87 -113 -75 -256 -149 -305 -157
-16 -3 -37 -9 -45 -13 -97 -52 -419 -77 -585 -45 -592 111 -927 643 -961 1525
-13 360 41 752 140 1007 49 128 106 244 116 238 5 -3 12 0 16 6 4 8 3 9 -4 5
-26 -16 -7 19 61 112 22 31 43 50 49 46 7 -5 9 -2 5 9 -4 11 21 41 84 101 82
78 122 107 103 74 -4 -8 -3 -10 2 -5 5 5 9 14 9 20 0 7 8 11 17 11 10 -1 16 3
15 9 -3 16 183 109 205 104 11 -3 15 -1 11 6 -4 6 2 8 15 5 12 -4 20 -2 17 2
-3 5 20 14 51 21 47 11 57 10 66 -2 8 -11 9 -11 4 4 -3 9 -2 17 2 17 4 0 52 5
107 11 103 10 278 3 270 -12 -3 -4 0 -11 6 -15 8 -4 9 -3 5 4 -5 8 2 12 18 12
20 0 24 -4 20 -17 -4 -13 -3 -15 4 -5 11 17 82 6 78 -11 -2 -7 -1 -9 1 -4 7
11 53 9 53 -3 0 -5 -8 -7 -17 -4 -10 3 -7 -1 7 -10 14 -8 33 -13 44 -9 23 7
168 -65 159 -80 -3 -6 -1 -7 6 -3 19 12 215 -121 216 -147 1 -7 6 -11 12 -10
6 1 17 -4 23 -12 7 -8 18 -15 25 -15 7 0 21 -11 31 -25 10 -14 21 -25 24 -25
6 0 1 1802 -5 1808 -9 9 -340 92 -389 97 -27 3 -53 8 -58 11 -4 3 -58 12 -120
20 -166 21 -501 26 -703 9z"/>
<path d="M7070 9159 c-397 -33 -773 -157 -1100 -361 -52 -33 -116 -77 -142
-99 -26 -21 -50 -39 -55 -39 -17 0 -285 -248 -373 -345 -44 -48 -132 -163
-216 -282 -64 -90 -134 -210 -177 -303 -21 -47 -53 -114 -69 -150 -62 -132
-118 -295 -144 -420 -3 -13 -9 -27 -13 -30 -13 -8 -71 -282 -96 -455 -38 -259
-48 -469 -42 -822 7 -392 31 -628 92 -883 9 -36 20 -92 25 -125 10 -62 44
-195 59 -230 5 -11 14 -40 21 -65 17 -64 114 -308 167 -419 24 -51 72 -139
105 -195 66 -108 223 -326 245 -339 7 -4 13 -13 13 -18 0 -6 -5 -7 -12 -3 -7
4 -8 3 -4 -5 4 -6 11 -9 16 -6 10 6 60 -33 60 -47 0 -5 -5 -6 -12 -2 -7 5 -8
3 -4 -5 5 -7 11 -10 14 -7 7 7 42 -23 42 -36 0 -5 -6 -6 -12 -2 -8 4 -10 3 -5
-2 5 -5 12 -9 16 -9 4 0 45 -34 92 -77 46 -42 98 -88 114 -103 17 -15 21 -22
10 -14 -17 11 -18 11 -7 -1 7 -8 16 -15 20 -15 22 -1 195 -129 187 -137 -3 -3
1 -5 8 -5 8 0 41 -16 74 -36 33 -20 65 -37 71 -37 6 0 14 -5 18 -12 5 -7 2 -9
-7 -6 -8 3 -23 9 -34 13 l-20 7 20 -13 c11 -7 31 -13 45 -14 15 0 24 -6 22
-14 -1 -7 2 -10 8 -6 6 4 22 0 35 -9 13 -9 31 -16 40 -16 8 0 15 -8 15 -17 0
-14 2 -15 9 -5 7 11 11 11 22 0 8 -8 40 -24 71 -37 32 -13 56 -27 53 -31 -3
-5 0 -12 6 -16 8 -4 9 -3 5 4 -9 16 4 15 44 -2 20 -8 27 -15 19 -18 -8 -3 0
-5 16 -5 40 0 216 -54 210 -64 -3 -4 -1 -10 5 -14 5 -3 10 -1 10 4 0 6 7 11
16 11 8 0 13 -4 9 -9 -3 -5 0 -13 6 -17 8 -4 9 -3 5 4 -5 8 2 12 19 12 14 0
24 -3 22 -7 -3 -5 9 -9 26 -9 18 -1 68 -7 112 -13 214 -30 264 -34 455 -34
210 -1 337 10 495 43 147 30 179 34 170 20 -5 -9 -4 -11 4 -6 6 4 9 11 6 16
-3 4 5 10 18 14 34 9 49 7 41 -6 -4 -7 -3 -8 5 -4 6 4 9 11 7 15 -7 11 132 54
146 45 7 -4 8 -3 4 5 -6 8 0 10 18 5 17 -4 26 -2 26 6 0 6 -4 8 -10 5 -5 -3
-10 -1 -10 4 0 6 7 11 16 11 8 0 47 14 87 31 40 18 82 31 95 30 12 0 22 4 22
10 0 5 -4 7 -10 4 -5 -3 -10 -4 -10 -1 0 11 131 76 142 70 7 -4 8 -3 4 4 -7
11 7 17 29 12 5 -1 7 2 2 6 -11 11 43 43 62 37 11 -3 12 -2 4 4 -8 6 8 23 53
57 36 26 72 49 80 50 8 1 20 8 27 16 10 12 9 12 -3 5 -9 -6 -7 -2 5 8 11 11
58 53 104 95 47 43 90 77 95 77 6 0 10 8 8 17 -2 11 9 23 27 32 16 9 33 21 37
27 5 8 3 9 -7 4 -15 -10 106 138 158 192 18 19 31 35 30 36 -4 4 118 187 125
187 4 0 8 9 8 21 0 11 4 18 9 15 5 -3 11 8 15 25 4 20 10 28 17 23 8 -5 9 -3
5 5 -5 7 -1 20 7 29 18 21 125 234 162 323 86 207 177 533 220 786 88 521 86
1135 -6 1678 -36 215 -153 655 -179 675 -3 3 -16 35 -28 72 -32 100 -193 426
-230 466 -7 8 -20 28 -28 44 -18 35 -67 105 -139 198 -100 130 -177 213 -300
321 -55 49 -111 100 -125 112 -84 79 -313 215 -508 302 -115 50 -369 128 -477
144 -38 6 -92 15 -120 20 -139 27 -458 37 -655 20z m390 -1579 c43 -16 62 -31
29 -24 -21 5 -22 4 -6 -6 10 -6 24 -9 31 -7 13 5 86 -37 86 -49 0 -3 -5 -2
-12 2 -7 4 -8 3 -4 -5 4 -6 11 -9 16 -6 17 10 150 -165 142 -187 -1 -5 2 -8 7
-8 5 0 12 -12 16 -27 3 -15 10 -30 14 -33 9 -6 54 -143 80 -240 114 -433 143
-1214 66 -1745 -42 -282 -144 -596 -242 -741 -22 -33 -70 -87 -105 -120 -104
-97 -201 -131 -338 -121 -178 14 -304 119 -422 351 -112 223 -179 532 -208
961 -20 302 -5 809 30 1035 60 381 176 669 338 838 41 43 71 71 67 65 -3 -7
-1 -13 4 -13 6 0 11 7 11 15 0 9 6 12 17 8 11 -4 14 -3 9 6 -5 7 12 20 49 37
64 30 135 43 135 25 0 -6 4 -11 10 -11 5 0 7 6 4 13 -6 16 122 6 176 -13z"/>
<path d="M10712 5930 l2 -3241 1057 3 c581 2 1055 0 1052 -4 -2 -5 3 -8 11 -8
8 0 18 5 22 12 4 7 3 8 -4 4 -7 -4 -12 -2 -12 3 0 6 10 11 23 11 47 0 257 22
346 36 70 11 96 12 101 3 6 -8 9 -8 14 0 4 6 2 11 -4 11 -29 0 3 16 37 18 35
3 286 62 326 77 10 4 17 3 17 -5 0 -6 5 -8 10 -5 6 4 8 10 5 14 -2 5 32 21 78
36 45 15 129 49 186 76 57 27 107 46 112 43 5 -3 8 0 7 7 -2 7 5 15 16 17 10
2 56 26 103 53 46 28 87 47 92 44 6 -3 13 0 17 6 5 8 3 9 -6 4 -9 -6 -11 -4
-6 4 5 7 14 10 22 7 7 -3 16 0 20 6 5 7 2 8 -7 4 -8 -4 -3 1 11 12 13 11 29
18 35 15 5 -4 7 -3 3 1 -4 5 20 30 52 57 61 51 82 62 59 32 -7 -10 4 -2 24 16
20 19 37 38 37 43 0 12 90 92 107 94 8 2 18 6 21 10 4 4 -2 4 -13 0 -22 -8
-28 -15 95 119 35 39 68 69 73 67 5 -1 5 2 2 8 -4 6 7 24 24 41 17 16 29 29
26 29 -3 0 2 11 11 25 9 14 21 22 27 18 6 -3 7 -1 3 6 -4 6 0 18 8 27 9 8 16
22 16 30 0 8 5 14 10 14 6 0 10 7 10 15 0 7 8 18 18 24 9 5 15 11 12 13 -3 2
1 10 8 18 19 22 63 104 152 285 80 165 161 384 199 538 11 48 30 124 41 170
114 472 133 1251 44 1776 -27 163 -90 433 -109 471 -6 14 -15 39 -19 55 -10
42 -63 190 -90 250 -65 143 -103 218 -148 295 -79 133 -151 245 -160 248 -4 2
-8 10 -8 18 0 8 -3 14 -7 14 -5 0 -19 17 -33 37 -37 55 -216 256 -307 344 -43
42 -116 106 -163 142 -47 37 -96 76 -110 87 -37 31 -110 78 -155 102 -22 11
-42 24 -45 28 -3 4 -75 41 -160 82 -238 116 -460 188 -755 247 -363 72 -382
73 -1502 78 l-982 5 1 -3242z m2145 1570 c28 -9 40 -17 36 -26 -3 -8 -1 -14 5
-14 6 0 12 5 14 11 2 6 35 -6 77 -28 79 -41 205 -148 194 -165 -3 -6 -2 -8 4
-5 5 4 23 -7 39 -24 22 -23 24 -29 9 -23 -17 7 -18 6 -5 -8 8 -9 18 -14 21
-12 10 6 74 -98 71 -114 -2 -8 1 -11 7 -8 5 4 13 -4 17 -16 3 -12 13 -28 20
-35 7 -8 19 -33 25 -56 6 -23 15 -46 19 -52 13 -17 88 -236 108 -320 48 -195
72 -444 72 -751 0 -465 -55 -773 -191 -1063 -144 -307 -403 -496 -719 -526
l-75 -7 0 1634 0 1633 105 -6 c58 -4 124 -12 147 -19z"/>
<path d="M16310 5930 l0 -3240 1750 0 1750 0 0 785 0 785 -805 0 -805 0 0 485
0 485 726 0 c658 0 726 1 720 16 -3 9 -6 362 -6 785 l0 769 -720 0 -720 0 0
405 0 405 805 -2 805 -3 0 783 0 782 -1750 0 -1750 0 0 -3240z"/>
<path d="M20665 3580 c-341 -70 -490 -427 -288 -691 97 -128 285 -198 454
-170 176 29 310 134 369 289 60 156 19 323 -107 443 -117 112 -276 160 -428
129z m265 -96 c76 -36 158 -113 191 -181 30 -63 38 -188 16 -264 -26 -86 -96
-166 -191 -214 -78 -40 -80 -40 -190 -40 -100 0 -117 3 -168 27 -114 53 -183
128 -213 233 -24 82 -16 193 18 261 34 68 132 157 199 182 29 10 60 22 68 25
8 4 58 5 110 4 81 -3 105 -8 160 -33z"/>
<path d="M20607 3353 c-4 -3 -7 -100 -7 -215 l0 -208 40 0 40 0 0 90 0 90 40
0 c53 0 73 -21 89 -95 7 -33 18 -66 23 -72 10 -13 78 -19 78 -7 0 30 -55 177
-70 186 -16 11 -15 14 16 43 29 27 34 39 34 76 0 88 -50 119 -188 119 -49 0
-92 -3 -95 -7z m162 -54 c55 -19 66 -65 26 -104 -18 -19 -35 -25 -70 -25 l-45
0 0 63 c0 35 3 67 7 70 10 10 46 8 82 -4z"/>
<path d="M11867 1155 c-279 -558 -507 -1020 -507 -1025 0 -6 64 -10 173 -10
l172 0 112 230 112 230 436 -2 437 -3 106 -228 106 -227 178 0 c98 0 178 2
178 4 0 2 -31 68 -70 145 -38 78 -70 143 -70 145 0 2 -50 106 -111 232 -61
126 -128 265 -149 309 -21 44 -97 201 -169 349 -72 148 -131 270 -131 271 0 2
-58 123 -130 270 -71 147 -130 270 -130 274 0 3 -8 16 -18 28 -17 23 -25 7
-525 -992z m578 185 c37 -80 101 -216 142 -304 41 -87 72 -160 70 -162 -2 -2
-135 -3 -295 -2 l-291 3 151 307 c83 169 152 307 154 305 1 -1 32 -67 69 -147z"/>
<path d="M13742 1148 l3 -1023 162 -3 163 -2 2 660 3 660 80 -77 c153 -146
917 -889 1228 -1194 92 -90 172 -166 177 -167 6 -2 10 377 10 1022 l0 1026
-160 0 -160 0 -2 -660 -3 -661 -70 68 c-128 123 -777 755 -955 929 -304 299
-452 439 -466 442 -12 3 -14 -151 -12 -1020z"/>
<path d="M5129 2066 c-251 -53 -411 -138 -585 -311 -148 -146 -222 -273 -266
-452 -27 -112 -29 -308 -3 -428 58 -276 238 -504 517 -659 189 -105 447 -154
663 -127 142 18 155 21 250 53 117 39 209 88 304 158 284 212 427 504 408 834
-14 242 -111 450 -289 624 -104 102 -179 156 -293 212 -164 80 -258 101 -465
106 -122 2 -195 -1 -241 -10z m387 -292 c225 -46 417 -198 515 -407 67 -144
74 -372 17 -525 -35 -94 -89 -174 -174 -258 -65 -65 -100 -90 -175 -127 -135
-67 -223 -86 -384 -82 -180 3 -265 30 -424 133 -115 74 -217 203 -270 340 -24
63 -26 77 -26 237 1 169 1 171 33 249 40 97 102 185 178 255 122 111 205 153
389 194 51 12 248 6 321 -9z"/>
<path d="M2750 1087 l0 -967 160 0 160 0 0 385 0 385 83 1 c175 3 238 10 342
41 311 91 475 356 410 663 -47 219 -239 400 -460 430 -28 4 -61 9 -75 11 -14
2 -159 7 -322 11 l-298 6 0 -966z m622 653 c135 -35 210 -108 224 -216 28
-226 -115 -344 -418 -344 l-108 0 0 296 0 296 118 -7 c64 -4 147 -15 184 -25z"/>
<path d="M6930 1085 l0 -965 163 2 162 3 0 388 0 387 22 0 c17 0 84 -83 314
-390 l292 -390 199 0 c109 0 198 2 198 5 0 3 -26 38 -58 78 -57 70 -121 152
-309 394 -51 65 -131 168 -178 228 -70 89 -83 111 -68 113 38 8 150 56 188 82
204 140 289 392 215 634 -54 173 -204 303 -415 357 -95 24 -298 38 -547 39
l-178 0 0 -965z m558 665 c135 -22 221 -72 265 -154 31 -59 30 -192 -2 -255
-60 -116 -187 -171 -398 -171 l-98 0 0 295 0 295 85 0 c47 0 113 -5 148 -10z"/>
<path d="M8460 1905 l0 -145 235 0 235 0 0 -820 0 -820 165 0 165 0 0 820 0
820 238 2 237 3 0 140 0 140 -637 3 -638 2 0 -145z"/>
<path d="M10130 1085 l0 -965 465 0 465 0 0 145 0 145 -300 0 -300 0 0 820 0
820 -165 0 -165 0 0 -965z"/>
<path d="M16180 1086 l0 -968 368 4 c328 4 377 7 463 26 208 46 361 131 522
289 114 112 188 245 229 410 18 71 22 117 22 238 0 166 -20 271 -75 393 -107
239 -338 437 -594 510 -160 46 -198 50 -602 58 l-333 7 0 -967z m735 645 c207
-45 343 -134 444 -290 85 -132 116 -319 85 -506 -24 -147 -134 -308 -274 -399
-143 -93 -231 -116 -472 -123 l-188 -6 0 678 0 678 158 -6 c99 -4 191 -13 247
-26z"/>
</g>
</svg>
